<svg preserveAspectRatio="none" overflow="visible" style="display: block;" width="40" height="28.7448" viewBox="0 0 40 28.7448" fill="none" xmlns="http://www.w3.org/2000/svg">
<g id="Invader">
<path d="M11.2667 0H7.53333V3.6H10.6051H11.2667V0Z" fill="white"/>
<path d="M3.73336 25.1333V23.7442H2.77215H1.81093L1.86668 25.1333H3.73336Z" fill="#8E8E8E"/>
<path d="M2.77215 23.7442H3.73336V21.5333H2.77215V23.7442Z" fill="#8E8E8E"/>
<path d="M4.69749 18H7.53333V17.6111H4.69749V18Z" fill="#8E8E8E"/>
<path d="M3.73336 21.5333V18H2.77215V21.5333H3.73336Z" fill="#BFBBBB"/>
<path d="M12.6344 20.7546V21.5333H28.3147V20.7546H12.6344Z" fill="#A29C9C"/>
<path d="M18.4137 25.1333H11.2667V26.1993H11.6917V25.5625H18.018H18.4137V25.1333Z" fill="#A29C9C"/>
<path d="M26.1039 10.8647V11.1487H26.8981V10.8647H26.1039Z" fill="#A29C9C"/>
<path d="M10.6051 7.13333H11.2667V6.53104H10.6051V7.13333Z" fill="#A29C9C"/>
<path d="M11.2667 4.09394V3.6H10.6051V4.09394H11.2667Z" fill="#A29C9C"/>
<path d="M14.7333 6.53104V7.13333H15.3971V6.53104H14.7333Z" fill="#A29C9C"/>
<path d="M11.1533 10.7333V11.2279H11.5632H11.9732V10.9806V10.7333H11.1533Z" fill="#A29C9C"/>
<path d="M11.5632 11.2279H11.1533V11.733H11.5632V11.2279Z" fill="#D8D8D8"/>
<path d="M11.9732 10.7333V10.9806H12.3594V10.7333H11.9732Z" fill="white"/>
<path d="M25.6 10.8647V11.4326H26.1039V11.1487V10.8647H25.6Z" fill="white"/>
<path d="M29.1333 25.1333V22.0883H28.9287V25.1333H29.1333Z" fill="#AAAAAA"/>
<path d="M29.1333 21.5333H28.724V22.0883H28.9287H29.1333V21.5333Z" fill="#DBDBDB"/>
<path d="M18.4137 25.5625H18.018V28.078H18.4137V25.5625Z" fill="#AFAFAF"/>
<path d="M2.77215 14.2667H3.73336V13.7602H2.77215V14.2667Z" fill="white"/>
<path d="M25.6 14.4486V14.9366H27.7927V14.6172H28.2611H28.6869V14.4486H25.6Z" fill="#737373"/>
<path d="M25.6 7.13333H18.7443V7.48701H24.8206V7.25959H25.6V7.13333Z" fill="#737373"/>
<path d="M36.6577 13.3833H36.3333V13.6841H36.6577V13.3833Z" fill="#D3D3D3"/>
<path d="M36.9324 13.6841H36.6577H36.3333V14.2667H37.2695V14.0087H36.9324V13.6841Z" fill="#D3D3D3"/>
<path d="M28.9287 25.1333H29.1333V28.7448H21.9505V25.1333H28.9287ZM18.018 25.5625H11.6917V26.1993H11.2667V28.7448H18.4137V28.078H18.018V25.5625Z" fill="white"/>
<path d="M0 14.2667V25.1333H1.86668L1.81093 23.7442H2.77215V21.5333V18H3.73336H4.69749V17.6111H7.53333V18V25.1333H11.2667V22.0883V21.5333H12.2152H12.6344V20.7546H28.3147V21.5333H28.724H29.1333V22.0883V25.1333H32.8V18H36.3333V25.1333H40V14.2667H37.2695H36.6577H36.3333V13.6841V13.3833V12.5V10.7333H32.8V7.13333H29.1333V3.6H25.6V7.13333V7.25959H24.8206V7.48701H18.7443V7.13333H15.3971H14.7333V6.53104V3.6H11.2667V4.09394V6.53104V7.13333H10.6051H7.53333V10.2004V10.7333H6.63456H3.73336V13.7602V14.2667H2.77215H0ZM14.7333 10.7333V14.2667H11.1533V11.733V11.2279V10.7333H11.9732H12.3594H14.7333ZM25.6 14.4486V11.4326V10.8647H26.1039H26.8981H29.1333H29.4215V13.2972H29.2405V14.2446H29.1333V14.4486H28.6869V14.6172H28.2611H27.7927V14.9366H25.6V14.4486Z" fill="white"/>
<path d="M6.63456 10.7333H7.53333V10.2004H6.63456V10.7333Z" fill="#898686"/>
<path d="M29.1333 3.6H32.8V0H29.1333V3.6Z" fill="#D9D9D9"/>
</g>
</svg>
